<svg width="20" height="20" viewBox="0 0 20 20" fill="none" xmlns="http://www.w3.org/2000/svg">
<g clip-path="url(#clip0_36_62)">
<path fill-rule="evenodd" clip-rule="evenodd" d="M14.122 4.682C15.472 4.682 16.903 5.425 17.922 6.71C14.582 8.561 15.125 13.384 18.5 14.673C18.035 15.713 17.813 16.178 17.215 17.099C16.38 18.383 15.205 19.983 13.746 19.997C12.451 20.009 12.118 19.144 10.36 19.154C8.602 19.164 8.235 20.012 6.94 20C5.482 19.986 4.367 18.542 3.532 17.257C1.198 13.665 0.953999 9.45 2.394 7.21C3.417 5.616 5.03 4.683 6.548 4.683C8.093 4.683 9.064 5.54 10.342 5.54C11.582 5.54 12.336 4.682 14.122 4.682ZM13.73 0C13.91 1.215 13.416 2.405 12.767 3.247C12.072 4.149 10.875 4.848 9.717 4.812C9.507 3.649 10.049 2.452 10.707 1.645C11.43 0.755 12.67 0.074 13.73 0Z" fill="white"/>
</g>
<defs>
<clipPath id="clip0_36_62">
<rect width="20" height="20" fill="white"/>
</clipPath>
</defs>
</svg>
