<svg width="17" height="17" viewBox="0 0 17 17" fill="none" xmlns="http://www.w3.org/2000/svg">
<g clip-path="url(#clip0_94_160)">
<path d="M8.5 8.49984V12.7498M8.5 8.49984C11.2384 8.49984 13.4583 6.29196 13.4583 3.56842C13.4583 3.49759 13.4569 3.42675 13.4541 3.35592C13.4236 2.64759 13.4088 2.29342 12.9285 1.85496C12.4483 1.4165 11.9177 1.4165 10.8545 1.4165H6.1455C5.083 1.4165 4.55104 1.4165 4.0715 1.85567C3.59196 2.29342 3.57638 2.64759 3.54592 3.35521C3.54308 3.42605 3.54167 3.49711 3.54167 3.56842C3.54167 6.29196 5.76158 8.49984 8.5 8.49984ZM8.5 12.7498C7.31425 12.7498 6.28292 13.4667 5.75025 14.5242C5.49525 15.0293 5.86075 15.5832 6.34525 15.5832H10.654C11.1393 15.5832 11.504 15.0293 11.2498 14.5242C10.7171 13.4667 9.68575 12.7498 8.5 12.7498ZM3.54167 3.5415H2.82271C2.12358 3.5415 1.77438 3.5415 1.55833 3.80359C1.34229 4.06638 1.40604 4.36034 1.53283 4.94825C1.77367 6.07025 2.29854 7.05696 3.00971 7.7915M13.4583 3.5415H14.1773C14.8764 3.5415 15.2256 3.5415 15.4417 3.80359C15.6577 4.06638 15.594 4.36034 15.4679 4.94825C15.2256 6.07025 14.7015 7.05696 13.9896 7.7915" stroke="#97BECA" stroke-width="1.5" stroke-linecap="round" stroke-linejoin="round"/>
</g>
<defs>
<clipPath id="clip0_94_160">
<rect width="17" height="17" fill="white"/>
</clipPath>
</defs>
</svg>
