<svg width="100" height="100" viewBox="0 0 100 100" fill="none" xmlns="http://www.w3.org/2000/svg">
<path d="M85.1458 83.0208H14.8542C13.1966 83.0208 11.6068 82.3623 10.4347 81.1902C9.26264 80.0181 8.60416 78.4284 8.60416 76.7708V38.6875C8.60416 37.0299 9.26264 35.4401 10.4347 34.268C11.6068 33.0959 13.1966 32.4375 14.8542 32.4375H25.9292C26.45 32.4397 26.9528 32.2467 27.3385 31.8965C27.7241 31.5464 27.9646 31.0645 28.0125 30.5458L28.7042 23.0458C28.7435 21.4181 29.4206 19.8711 30.5896 18.7379C31.7587 17.6047 33.3261 16.9761 34.9542 16.9875H65.0792C66.7368 16.9875 68.3265 17.6459 69.4986 18.818C70.6707 19.9901 71.3292 21.5799 71.3292 23.2375L72.0125 30.5541C72.0604 31.0728 72.3009 31.5547 72.6865 31.9049C73.0721 32.255 73.5749 32.448 74.0958 32.4458H85.1708C86.8284 32.4458 88.4181 33.1043 89.5902 34.2764C90.7623 35.4485 91.4208 37.0382 91.4208 38.6958V76.7791C91.4197 77.6013 91.2564 78.4152 90.9403 79.1741C90.6241 79.9331 90.1614 80.6222 89.5785 81.202C88.9955 81.7818 88.304 82.2409 87.5433 82.553C86.7827 82.8651 85.968 83.0241 85.1458 83.0208ZM14.8542 36.6041C14.3016 36.6041 13.7717 36.8236 13.381 37.2143C12.9903 37.605 12.7708 38.1349 12.7708 38.6875V76.7708C12.7708 77.3233 12.9903 77.8532 13.381 78.2439C13.7717 78.6346 14.3016 78.8541 14.8542 78.8541H85.1458C85.6983 78.8541 86.2283 78.6346 86.619 78.2439C87.0097 77.8532 87.2291 77.3233 87.2291 76.7708V38.6875C87.2291 38.1349 87.0097 37.605 86.619 37.2143C86.2283 36.8236 85.6983 36.6041 85.1458 36.6041H74.0708C72.5125 36.6045 71.0102 36.0227 69.8586 34.9729C68.7071 33.923 67.9892 32.4808 67.8458 30.9291L67.1542 23.4291C67.1716 23.1418 67.1311 22.854 67.035 22.5827C66.9389 22.3114 66.7892 22.0622 66.5948 21.85C66.4004 21.6377 66.1653 21.4667 65.9035 21.3472C65.6417 21.2276 65.3585 21.162 65.0708 21.1541H34.9375C34.385 21.1541 33.855 21.3736 33.4643 21.7643C33.0736 22.155 32.8542 22.6849 32.8542 23.2375L32.1542 30.9291C32.0108 32.4808 31.2929 33.923 30.1413 34.9729C28.9897 36.0227 27.4875 36.6045 25.9292 36.6041H14.8542Z" fill="#9E9E9E"/>
<path d="M50 72.0081C46.7036 72.0081 43.4813 71.0307 40.7405 69.1993C37.9997 67.3679 35.8635 64.765 34.602 61.7195C33.3405 58.6741 33.0105 55.323 33.6536 52.09C34.2967 48.857 35.884 45.8872 38.2149 43.5564C40.5457 41.2255 43.5155 39.6381 46.7485 38.9951C49.9815 38.352 53.3326 38.682 56.378 39.9435C59.4235 41.2049 62.0265 43.3412 63.8578 46.082C65.6892 48.8228 66.6667 52.0451 66.6667 55.3415C66.6667 59.7618 64.9107 64.001 61.7851 67.1266C58.6595 70.2522 54.4203 72.0081 50 72.0081ZM50 42.8415C47.5277 42.8415 45.111 43.5746 43.0554 44.9481C40.9997 46.3216 39.3976 48.2739 38.4515 50.5579C37.5054 52.842 37.2579 55.3553 37.7402 57.7801C38.2225 60.2049 39.413 62.4322 41.1612 64.1803C42.9093 65.9285 45.1366 67.119 47.5614 67.6013C49.9861 68.0836 52.4995 67.8361 54.7835 66.89C57.0676 65.9439 59.0198 64.3417 60.3934 62.2861C61.7669 60.2305 62.5 57.8137 62.5 55.3415C62.5 52.0263 61.183 48.8468 58.8388 46.5026C56.4946 44.1584 53.3152 42.8415 50 42.8415Z" fill="#9E9E9E"/>
</svg>
