<svg width="17" height="17" viewBox="0 0 17 17" fill="none" xmlns="http://www.w3.org/2000/svg">
<path d="M13.1042 5.66667C13.5738 5.66667 14.0242 5.4801 14.3563 5.148C14.6884 4.81591 14.875 4.36549 14.875 3.89583C14.875 3.42618 14.6884 2.97576 14.3563 2.64367C14.0242 2.31157 13.5738 2.125 13.1042 2.125C12.6345 2.125 12.1841 2.31157 11.852 2.64367C11.5199 2.97576 11.3333 3.42618 11.3333 3.89583C11.3333 4.36549 11.5199 4.81591 11.852 5.148C12.1841 5.4801 12.6345 5.66667 13.1042 5.66667ZM3.89583 14.875C4.36549 14.875 4.81591 14.6884 5.148 14.3563C5.4801 14.0242 5.66667 13.5738 5.66667 13.1042C5.66667 12.6345 5.4801 12.1841 5.148 11.852C4.81591 11.5199 4.36549 11.3333 3.89583 11.3333C3.42618 11.3333 2.97576 11.5199 2.64367 11.852C2.31157 12.1841 2.125 12.6345 2.125 13.1042C2.125 13.5738 2.31157 14.0242 2.64367 14.3563C2.97576 14.6884 3.42618 14.875 3.89583 14.875Z" stroke="#97BECA" stroke-linejoin="round"/>
<path d="M13.1042 5.66667V12.5743C13.1042 13.1845 12.8618 13.7697 12.4303 14.2012C11.9989 14.6326 11.4137 14.875 10.8035 14.875C10.1933 14.875 9.60814 14.6326 9.17668 14.2012C8.74522 13.7697 8.50283 13.1845 8.50283 12.5743V4.4285C8.50283 3.81757 8.26014 3.23167 7.82815 2.79968C7.39616 2.36769 6.81026 2.125 6.19933 2.125C5.58841 2.125 5.0025 2.36769 4.57051 2.79968C4.13852 3.23167 3.89583 3.81757 3.89583 4.4285V11.3333" stroke="#97BECA" stroke-linecap="round" stroke-linejoin="round"/>
</svg>
