<svg width="19" height="19" viewBox="0 0 19 19" fill="none" xmlns="http://www.w3.org/2000/svg">
<g clip-path="url(#clip0_36_56)">
<path d="M6.61883 0.624866C4.72043 1.28344 3.08326 2.53343 1.94778 4.19123C0.812306 5.84903 0.238377 7.82727 0.310297 9.83536C0.382216 11.8435 1.09619 13.7756 2.34736 15.3479C3.59852 16.9202 5.32092 18.0499 7.26156 18.571C8.83488 18.9769 10.4833 18.9948 12.065 18.6229C13.4979 18.3011 14.8226 17.6126 15.9095 16.6249C17.0407 15.5656 17.8618 14.218 18.2845 12.727C18.744 11.1055 18.8257 9.40039 18.5235 7.74244H9.68851V11.4074H14.8052C14.7029 11.9919 14.4838 12.5498 14.1609 13.0476C13.838 13.5455 13.4179 13.9731 12.9259 14.3049C12.3011 14.7182 11.5968 14.9962 10.8582 15.1213C10.1174 15.259 9.35758 15.259 8.6168 15.1213C7.86598 14.966 7.15572 14.6562 6.53125 14.2114C5.52803 13.5012 4.77475 12.4923 4.37891 11.3287C3.97637 10.1433 3.97637 8.85811 4.37891 7.67268C4.66068 6.84175 5.12649 6.08519 5.74156 5.45948C6.44544 4.73027 7.33657 4.20903 8.31718 3.95295C9.2978 3.69686 10.33 3.71583 11.3005 4.00776C12.0587 4.24049 12.752 4.64713 13.3252 5.19526C13.9022 4.6213 14.4781 4.04586 15.053 3.46893C15.3499 3.15869 15.6735 2.8633 15.9659 2.54565C15.091 1.73143 14.064 1.09787 12.9437 0.681272C10.9038 -0.0594463 8.67168 -0.0793524 6.61883 0.624866Z" fill="white"/>
<path d="M6.61882 0.624855C8.67151 -0.0798421 10.9036 -0.06046 12.9437 0.679776C14.0642 1.09921 15.0907 1.73582 15.9644 2.55306C15.6676 2.87071 15.3544 3.16759 15.0516 3.47634C14.4756 4.05129 13.9002 4.62426 13.3252 5.19525C12.752 4.64712 12.0587 4.24048 11.3005 4.00775C10.3303 3.71479 9.29815 3.69473 8.31727 3.94977C7.3364 4.20481 6.44472 4.72509 5.74007 5.45353C5.125 6.07924 4.65919 6.8358 4.37742 7.66673L1.30031 5.28431C2.40173 3.10014 4.30876 1.42942 6.61882 0.624855Z" fill="#E33629"/>
<path d="M0.483909 7.64458C0.6493 6.8249 0.923883 6.0311 1.30032 5.28442L4.37742 7.67278C3.97488 8.85821 3.97488 10.1434 4.37742 11.3288C3.35222 12.1205 2.32651 12.9161 1.30032 13.7157C0.35796 11.8399 0.0705588 9.70267 0.483909 7.64458Z" fill="#F8BD00"/>
<path d="M9.68852 7.74097H18.5235C18.8257 9.39891 18.744 11.1041 18.2845 12.7255C17.8618 14.2165 17.0407 15.5641 15.9095 16.6235C14.9165 15.8486 13.919 15.0797 12.9259 14.3049C13.4183 13.9728 13.8385 13.5447 14.1614 13.0463C14.4843 12.5479 14.7033 11.9895 14.8052 11.4044H9.68852C9.68703 10.1842 9.68852 8.96261 9.68852 7.74097Z" fill="#587DBD"/>
<path d="M1.29883 13.7157C2.32503 12.9241 3.35073 12.1284 4.37594 11.3289C4.77257 12.4929 5.52693 13.5018 6.53125 14.2115C7.15767 14.6542 7.86946 14.9616 8.62125 15.114C9.36204 15.2518 10.1219 15.2518 10.8627 15.114C11.6013 14.989 12.3056 14.7109 12.9304 14.2976C13.9234 15.0725 14.9209 15.8414 15.914 16.6162C14.8273 17.6044 13.5025 18.2934 12.0695 18.6157C10.4877 18.9875 8.83934 18.9697 7.26602 18.5637C6.02167 18.2315 4.85936 17.6458 3.85195 16.8433C2.78567 15.9968 1.91478 14.9299 1.29883 13.7157Z" fill="#319F43"/>
</g>
<defs>
<clipPath id="clip0_36_56">
<rect width="19" height="19" fill="white"/>
</clipPath>
</defs>
</svg>
