<svg width="21" height="21" viewBox="0 0 21 21" fill="none" xmlns="http://www.w3.org/2000/svg">
<path fill-rule="evenodd" clip-rule="evenodd" d="M0.6442 6.07274C0.125 7.02128 0.125 8.16549 0.125 10.4539V11.975C0.125 15.8758 0.125 17.8263 1.29657 19.0381C2.46815 20.25 4.35376 20.25 8.125 20.25H12.125C15.8962 20.25 17.7819 20.25 18.9534 19.0381C20.125 17.8263 20.125 15.8758 20.125 11.975V10.4539C20.125 8.16549 20.125 7.02128 19.6058 6.07274C19.0866 5.12421 18.1381 4.53551 16.241 3.35812L14.241 2.11687C12.2356 0.87229 11.2329 0.25 10.125 0.25C9.01706 0.25 8.01439 0.87229 6.00903 2.11687L4.00903 3.35813C2.11195 4.53551 1.1634 5.12421 0.6442 6.07274ZM7.125 15.5C6.71079 15.5 6.375 15.8358 6.375 16.25C6.375 16.6642 6.71079 17 7.125 17H13.125C13.5392 17 13.875 16.6642 13.875 16.25C13.875 15.8358 13.5392 15.5 13.125 15.5H7.125Z" fill="white"/>
</svg>
