<svg width="25" height="24" viewBox="0 0 25 24" fill="none" xmlns="http://www.w3.org/2000/svg">
<mask id="mask0_153_569" style="mask-type:luminance" maskUnits="userSpaceOnUse" x="2" y="2" width="21" height="20">
<path d="M18.875 8C19.538 8 20.1739 7.73661 20.6428 7.26777C21.1116 6.79893 21.375 6.16304 21.375 5.5C21.375 4.83696 21.1116 4.20107 20.6428 3.73223C20.1739 3.26339 19.538 3 18.875 3C18.212 3 17.5761 3.26339 17.1072 3.73223C16.6384 4.20107 16.375 4.83696 16.375 5.5C16.375 6.16304 16.6384 6.79893 17.1072 7.26777C17.5761 7.73661 18.212 8 18.875 8ZM5.875 21C6.53804 21 7.17393 20.7366 7.64277 20.2678C8.11161 19.7989 8.375 19.163 8.375 18.5C8.375 17.837 8.11161 17.2011 7.64277 16.7322C7.17393 16.2634 6.53804 16 5.875 16C5.21196 16 4.57607 16.2634 4.10723 16.7322C3.63839 17.2011 3.375 17.837 3.375 18.5C3.375 19.163 3.63839 19.7989 4.10723 20.2678C4.57607 20.7366 5.21196 21 5.875 21Z" fill="#555555" stroke="white" stroke-width="2" stroke-linejoin="round"/>
<path d="M18.875 8V17.752C18.875 18.6134 18.5328 19.4396 17.9237 20.0487C17.3146 20.6578 16.4884 21 15.627 21C14.7656 21 13.9394 20.6578 13.3303 20.0487C12.7212 19.4396 12.379 18.6134 12.379 17.752V6.252C12.379 5.38952 12.0364 4.56236 11.4265 3.95249C10.8166 3.34262 9.98948 3 9.127 3C8.26452 3 7.43736 3.34262 6.82749 3.95249C6.21762 4.56236 5.875 5.38952 5.875 6.252V16" stroke="white" stroke-width="2" stroke-linecap="round" stroke-linejoin="round"/>
</mask>
<g mask="url(#mask0_153_569)">
<path d="M0.375 0H24.375V24H0.375V0Z" fill="white"/>
</g>
</svg>
