<svg width="17" height="17" viewBox="0 0 17 17" fill="none" xmlns="http://www.w3.org/2000/svg">
<path d="M8.49998 6.12467C8.03025 6.12467 7.57107 6.26397 7.1805 6.52493C6.78993 6.7859 6.48552 7.15683 6.30577 7.5908C6.12601 8.02478 6.07897 8.50231 6.17061 8.96301C6.26225 9.42372 6.48845 9.8469 6.8206 10.1791C7.15275 10.5112 7.57593 10.7374 8.03664 10.829C8.49734 10.9207 8.97488 10.8736 9.40885 10.6939C9.84283 10.5141 10.2138 10.2097 10.4747 9.81915C10.7357 9.42859 10.875 8.96941 10.875 8.49967C10.875 7.86978 10.6248 7.26569 10.1794 6.8203C9.73396 6.3749 9.12987 6.12467 8.49998 6.12467ZM8.49998 9.29134C8.3434 9.29134 8.19034 9.24491 8.06015 9.15792C7.92996 9.07093 7.82849 8.94729 7.76857 8.80263C7.70866 8.65797 7.69298 8.4988 7.72352 8.34523C7.75407 8.19166 7.82947 8.0506 7.94019 7.93988C8.0509 7.82916 8.19196 7.75377 8.34553 7.72322C8.4991 7.69267 8.65828 7.70835 8.80294 7.76827C8.9476 7.82819 9.07124 7.92966 9.15823 8.05985C9.24522 8.19004 9.29165 8.3431 9.29165 8.49967C9.29165 8.70964 9.20824 8.911 9.05977 9.05947C8.91131 9.20793 8.70994 9.29134 8.49998 9.29134ZM15.625 7.70801H14.7779C14.6012 6.31466 13.9664 5.01957 12.9732 4.02643C11.9801 3.03329 10.685 2.39845 9.29165 2.22176V1.37467C9.29165 1.16471 9.20824 0.963348 9.05977 0.814882C8.91131 0.666415 8.70994 0.583008 8.49998 0.583008C8.29002 0.583008 8.08865 0.666415 7.94019 0.814882C7.79172 0.963348 7.70831 1.16471 7.70831 1.37467V2.22176C6.31496 2.39845 5.01987 3.03329 4.02673 4.02643C3.0336 5.01957 2.39876 6.31466 2.22206 7.70801H1.37498C1.16502 7.70801 0.963653 7.79142 0.815187 7.93988C0.66672 8.08835 0.583313 8.28971 0.583313 8.49967C0.583313 8.70964 0.66672 8.911 0.815187 9.05947C0.963653 9.20793 1.16502 9.29134 1.37498 9.29134H2.22206C2.39876 10.6847 3.0336 11.9798 4.02673 12.9729C5.01987 13.9661 6.31496 14.6009 7.70831 14.7776V15.6247C7.70831 15.8346 7.79172 16.036 7.94019 16.1845C8.08865 16.3329 8.29002 16.4163 8.49998 16.4163C8.70994 16.4163 8.91131 16.3329 9.05977 16.1845C9.20824 16.036 9.29165 15.8346 9.29165 15.6247V14.7776C10.685 14.6009 11.9801 13.9661 12.9732 12.9729C13.9664 11.9798 14.6012 10.6847 14.7779 9.29134H15.625C15.8349 9.29134 16.0363 9.20793 16.1848 9.05947C16.3332 8.911 16.4166 8.70964 16.4166 8.49967C16.4166 8.28971 16.3332 8.08835 16.1848 7.93988C16.0363 7.79142 15.8349 7.70801 15.625 7.70801ZM8.49998 13.2497C7.56052 13.2497 6.64215 12.9711 5.86102 12.4492C5.07989 11.9272 4.47107 11.1854 4.11155 10.3174C3.75204 9.44947 3.65797 8.4944 3.84125 7.573C4.02453 6.65159 4.47692 5.80522 5.14122 5.14092C5.80552 4.47662 6.65189 4.02422 7.5733 3.84094C8.49471 3.65766 9.44978 3.75173 10.3177 4.11125C11.1857 4.47076 11.9275 5.07958 12.4495 5.86072C12.9714 6.64185 13.25 7.56021 13.25 8.49967C13.25 9.75945 12.7495 10.9676 11.8587 11.8584C10.9679 12.7492 9.75976 13.2497 8.49998 13.2497Z" fill="#F54848"/>
</svg>
