<svg width="20" height="20" viewBox="0 0 20 20" fill="none" xmlns="http://www.w3.org/2000/svg">
<path d="M7.49996 17.4998C7.49996 17.9582 7.87496 18.3332 8.33329 18.3332H11.6666C12.125 18.3332 12.5 17.9582 12.5 17.4998V16.6665H7.49996V17.4998ZM9.99996 1.6665C6.78329 1.6665 4.16663 4.28317 4.16663 7.49984C4.16663 9.48317 5.15829 11.2248 6.66663 12.2832V14.1665C6.66663 14.6248 7.04163 14.9998 7.49996 14.9998H12.5C12.9583 14.9998 13.3333 14.6248 13.3333 14.1665V12.2832C14.8416 11.2248 15.8333 9.48317 15.8333 7.49984C15.8333 4.28317 13.2166 1.6665 9.99996 1.6665ZM12.375 10.9165L11.6666 11.4165V13.3332H8.33329V11.4165L7.62496 10.9165C7.07302 10.5336 6.62184 10.0229 6.30987 9.42802C5.9979 8.83311 5.8344 8.17159 5.83329 7.49984C5.83329 5.19984 7.69996 3.33317 9.99996 3.33317C12.3 3.33317 14.1666 5.19984 14.1666 7.49984C14.1666 8.85817 13.5 10.1332 12.375 10.9165Z" fill="#2765A1"/>
</svg>
