<svg width="19" height="19" viewBox="0 0 19 19" fill="none" xmlns="http://www.w3.org/2000/svg">
<path d="M6.33331 7.91667V5.54167C6.33331 4.70181 6.66694 3.89636 7.26081 3.3025C7.85467 2.70863 8.66013 2.375 9.49998 2.375C10.3398 2.375 11.1453 2.70863 11.7392 3.3025C12.333 3.89636 12.6666 4.70181 12.6666 5.54167V7.91667" stroke="#97BECA" stroke-width="1.5" stroke-linecap="round"/>
<path d="M3.95831 7.9165H15.0416V15.0415C15.0416 15.4614 14.8748 15.8642 14.5779 16.1611C14.281 16.458 13.8782 16.6248 13.4583 16.6248H5.54165C5.12172 16.6248 4.71899 16.458 4.42206 16.1611C4.12513 15.8642 3.95831 15.4614 3.95831 15.0415V7.9165Z" stroke="#97BECA" stroke-width="1.5" stroke-linejoin="round"/>
<path d="M11.4791 12.271H11.4891V12.281H11.4791V12.271Z" stroke="#97BECA" stroke-width="2.25" stroke-linejoin="round"/>
</svg>
