<svg width="25" height="24" viewBox="0 0 25 24" fill="none" xmlns="http://www.w3.org/2000/svg">
<path d="M12.625 14C14.831 14 16.625 12.206 16.625 10C16.625 7.794 14.831 6 12.625 6C10.419 6 8.625 7.794 8.625 10C8.625 12.206 10.419 14 12.625 14ZM12.625 8C13.728 8 14.625 8.897 14.625 10C14.625 11.103 13.728 12 12.625 12C11.522 12 10.625 11.103 10.625 10C10.625 8.897 11.522 8 12.625 8Z" fill="white"/>
<path d="M12.045 21.814C12.2144 21.9346 12.4171 21.9994 12.625 21.9994C12.8329 21.9994 13.0356 21.9346 13.205 21.814C13.509 21.599 20.654 16.44 20.625 10C20.625 5.589 17.036 2 12.625 2C8.214 2 4.625 5.589 4.625 9.995C4.596 16.44 11.741 21.599 12.045 21.814ZM12.625 4C15.934 4 18.625 6.691 18.625 10.005C18.646 14.443 14.237 18.428 12.625 19.735C11.014 18.427 6.604 14.441 6.625 10C6.625 6.691 9.316 4 12.625 4Z" fill="white"/>
</svg>
