<svg width="16" height="13" viewBox="0 0 16 13" fill="none" xmlns="http://www.w3.org/2000/svg">
<path d="M2.77661 0.391846H13.1914C13.8289 0.391846 14.4402 0.645063 14.8909 1.09579C15.3416 1.54652 15.5949 2.15784 15.5949 2.79527V10.0055C15.5949 10.643 15.3416 11.2543 14.8909 11.705C14.4402 12.1557 13.8289 12.409 13.1914 12.409H2.77661C2.13918 12.409 1.52786 12.1557 1.07713 11.705C0.626401 11.2543 0.373184 10.643 0.373184 10.0055V2.79527C0.373184 2.15784 0.626401 1.54652 1.07713 1.09579C1.52786 0.645063 2.13918 0.391846 2.77661 0.391846ZM2.77661 1.19299C2.37604 1.19299 2.02354 1.32918 1.75115 1.56952L7.98403 5.59926L14.2169 1.56952C13.9445 1.32918 13.592 1.19299 13.1914 1.19299H2.77661ZM7.98403 6.56864L1.27847 2.21845C1.21438 2.3947 1.17433 2.59498 1.17433 2.79527V10.0055C1.17433 10.4305 1.34314 10.838 1.64362 11.1385C1.94411 11.439 2.35166 11.6078 2.77661 11.6078H13.1914C13.6164 11.6078 14.0239 11.439 14.3244 11.1385C14.6249 10.838 14.7937 10.4305 14.7937 10.0055V2.79527C14.7937 2.59498 14.7537 2.3947 14.6896 2.21845L7.98403 6.56864Z" fill="#9E9E9E"/>
</svg>
