<svg width="24" height="24" viewBox="0 0 24 24" fill="none" xmlns="http://www.w3.org/2000/svg">
<g clip-path="url(#clip0_76_611)">
<mask id="path-1-inside-1_76_611" fill="white">
<path d="M21.6733 18.5531C21.0305 17.98 20.4676 17.323 20 16.5998C19.489 15.6017 19.183 14.5114 19.1 13.3931V10.0998C19.1044 8.34351 18.4673 6.64609 17.3085 5.32642C16.1496 4.00675 14.5488 3.15568 12.8067 2.93311V2.07311C12.8067 1.83706 12.7129 1.61069 12.546 1.44378C12.3791 1.27687 12.1527 1.18311 11.9167 1.18311C11.6806 1.18311 11.4542 1.27687 11.2873 1.44378C11.1204 1.61069 11.0267 1.83706 11.0267 2.07311V2.94644C9.30016 3.18506 7.71864 4.04128 6.57501 5.35651C5.43138 6.67174 4.80315 8.35687 4.80666 10.0998V13.3931C4.7237 14.5114 4.41768 15.6017 3.90666 16.5998C3.44725 17.3213 2.89346 17.9783 2.25999 18.5531C2.18888 18.6156 2.13189 18.6925 2.0928 18.7787C2.05372 18.8649 2.03345 18.9584 2.03333 19.0531V19.9598C2.03333 20.1366 2.10356 20.3062 2.22859 20.4312C2.35361 20.5562 2.52318 20.6264 2.69999 20.6264H21.2333C21.4101 20.6264 21.5797 20.5562 21.7047 20.4312C21.8298 20.3062 21.9 20.1366 21.9 19.9598V19.0531C21.8999 18.9584 21.8796 18.8649 21.8405 18.7787C21.8014 18.6925 21.7444 18.6156 21.6733 18.5531ZM3.41999 19.2931C4.04012 18.6938 4.58623 18.0223 5.04666 17.2931C5.69052 16.0877 6.06578 14.7573 6.14666 13.3931V10.0998C6.12022 9.31846 6.25127 8.53982 6.53202 7.81022C6.81277 7.08061 7.23747 6.41496 7.78082 5.85291C8.32418 5.29085 8.97509 4.84388 9.69478 4.53862C10.4145 4.23336 11.1882 4.07604 11.97 4.07604C12.7517 4.07604 13.5255 4.23336 14.2452 4.53862C14.9649 4.84388 15.6158 5.29085 16.1592 5.85291C16.7025 6.41496 17.1272 7.08061 17.408 7.81022C17.6887 8.53982 17.8198 9.31846 17.7933 10.0998V13.3931C17.8742 14.7573 18.2495 16.0877 18.8933 17.2931C19.3538 18.0223 19.8999 18.6938 20.52 19.2931H3.41999Z"/>
</mask>
<path d="M21.6733 18.5531C21.0305 17.98 20.4676 17.323 20 16.5998C19.489 15.6017 19.183 14.5114 19.1 13.3931V10.0998C19.1044 8.34351 18.4673 6.64609 17.3085 5.32642C16.1496 4.00675 14.5488 3.15568 12.8067 2.93311V2.07311C12.8067 1.83706 12.7129 1.61069 12.546 1.44378C12.3791 1.27687 12.1527 1.18311 11.9167 1.18311C11.6806 1.18311 11.4542 1.27687 11.2873 1.44378C11.1204 1.61069 11.0267 1.83706 11.0267 2.07311V2.94644C9.30016 3.18506 7.71864 4.04128 6.57501 5.35651C5.43138 6.67174 4.80315 8.35687 4.80666 10.0998V13.3931C4.7237 14.5114 4.41768 15.6017 3.90666 16.5998C3.44725 17.3213 2.89346 17.9783 2.25999 18.5531C2.18888 18.6156 2.13189 18.6925 2.0928 18.7787C2.05372 18.8649 2.03345 18.9584 2.03333 19.0531V19.9598C2.03333 20.1366 2.10356 20.3062 2.22859 20.4312C2.35361 20.5562 2.52318 20.6264 2.69999 20.6264H21.2333C21.4101 20.6264 21.5797 20.5562 21.7047 20.4312C21.8298 20.3062 21.9 20.1366 21.9 19.9598V19.0531C21.8999 18.9584 21.8796 18.8649 21.8405 18.7787C21.8014 18.6925 21.7444 18.6156 21.6733 18.5531ZM3.41999 19.2931C4.04012 18.6938 4.58623 18.0223 5.04666 17.2931C5.69052 16.0877 6.06578 14.7573 6.14666 13.3931V10.0998C6.12022 9.31846 6.25127 8.53982 6.53202 7.81022C6.81277 7.08061 7.23747 6.41496 7.78082 5.85291C8.32418 5.29085 8.97509 4.84388 9.69478 4.53862C10.4145 4.23336 11.1882 4.07604 11.97 4.07604C12.7517 4.07604 13.5255 4.23336 14.2452 4.53862C14.9649 4.84388 15.6158 5.29085 16.1592 5.85291C16.7025 6.41496 17.1272 7.08061 17.408 7.81022C17.6887 8.53982 17.8198 9.31846 17.7933 10.0998V13.3931C17.8742 14.7573 18.2495 16.0877 18.8933 17.2931C19.3538 18.0223 19.8999 18.6938 20.52 19.2931H3.41999Z" fill="#97BECA"/>
<path d="M21.6733 18.5531L20.3424 20.046L20.3479 20.0508L20.3533 20.0556L21.6733 18.5531ZM20 16.5998L18.2198 17.5112L18.2657 17.601L18.3205 17.6857L20 16.5998ZM19.1 13.3931H17.1V13.4672L17.1055 13.5411L19.1 13.3931ZM19.1 10.0998L17.1 10.0947V10.0998H19.1ZM12.8067 2.93311H10.8067V4.69384L12.5532 4.91698L12.8067 2.93311ZM11.0267 2.94644L11.3005 4.92761L13.0267 4.68903V2.94644H11.0267ZM4.80666 10.0998H6.80666L6.80665 10.0957L4.80666 10.0998ZM4.80666 13.3931L6.80118 13.5411L6.80666 13.4672V13.3931H4.80666ZM3.90666 16.5998L5.59373 17.6739L5.64413 17.5948L5.68689 17.5112L3.90666 16.5998ZM2.25999 18.5531L3.57999 20.0556L3.59209 20.045L3.60401 20.0342L2.25999 18.5531ZM2.03333 19.0531L0.0333252 19.0506V19.0531H2.03333ZM21.9 19.0531H23.9L23.9 19.0506L21.9 19.0531ZM3.41999 19.2931L2.03011 17.855L-1.52736 21.2931H3.41999V19.2931ZM5.04666 17.2931L6.73778 18.3609L6.77655 18.2995L6.81076 18.2354L5.04666 17.2931ZM6.14666 13.3931L8.14315 13.5115L8.14666 13.4523V13.3931H6.14666ZM6.14666 10.0998H8.14666V10.0659L8.14551 10.0321L6.14666 10.0998ZM11.97 4.07604V6.07604V4.07604ZM17.7933 10.0998L15.7945 10.0321L15.7933 10.0659V10.0998H17.7933ZM17.7933 13.3931H15.7933V13.4523L15.7968 13.5115L17.7933 13.3931ZM18.8933 17.2931L17.1292 18.2354L17.1634 18.2995L17.2022 18.3609L18.8933 17.2931ZM20.52 19.2931V21.2931H25.4673L21.9099 17.855L20.52 19.2931ZM21.6733 18.5531L23.0042 17.0602C22.4953 16.6065 22.0497 16.0864 21.6795 15.5138L20 16.5998L18.3205 17.6857C18.8856 18.5596 19.5656 19.3535 20.3424 20.046L21.6733 18.5531ZM20 16.5998L21.7802 15.6883C21.3909 14.9278 21.1577 14.0971 21.0945 13.2451L19.1 13.3931L17.1055 13.5411C17.2082 14.9256 17.5871 16.2755 18.2198 17.5112L20 16.5998ZM19.1 13.3931H21.1V10.0998H19.1H17.1V13.3931H19.1ZM19.1 10.0998L21.1 10.1048C21.1056 7.86114 20.2918 5.69264 18.8113 4.00674L17.3085 5.32642L15.8057 6.6461C16.6429 7.59953 17.1032 8.82589 17.1 10.0947L19.1 10.0998ZM17.3085 5.32642L18.8113 4.00674C17.3308 2.32084 15.2857 1.23357 13.0601 0.949231L12.8067 2.93311L12.5532 4.91698C13.8118 5.07778 14.9684 5.69267 15.8057 6.6461L17.3085 5.32642ZM12.8067 2.93311H14.8067V2.07311H12.8067H10.8067V2.93311H12.8067ZM12.8067 2.07311H14.8067C14.8067 1.30663 14.5022 0.571545 13.9602 0.0295669L12.546 1.44378L11.1318 2.85799C10.9236 2.64983 10.8067 2.3675 10.8067 2.07311H12.8067ZM12.546 1.44378L13.9602 0.0295669C13.4182 -0.512412 12.6831 -0.816895 11.9167 -0.816895V1.18311V3.18311C11.6223 3.18311 11.3399 3.06616 11.1318 2.85799L12.546 1.44378ZM11.9167 1.18311V-0.816895C11.1502 -0.816895 10.4151 -0.512412 9.87312 0.0295669L11.2873 1.44378L12.7015 2.85799C12.4934 3.06616 12.2111 3.18311 11.9167 3.18311V1.18311ZM11.2873 1.44378L9.87312 0.0295669C9.33114 0.571547 9.02666 1.30663 9.02666 2.07311H11.0267H13.0267C13.0267 2.3675 12.9097 2.64983 12.7015 2.85799L11.2873 1.44378ZM11.0267 2.07311H9.02666V2.94644H11.0267H13.0267V2.07311H11.0267ZM11.0267 2.94644L10.7528 0.965271C8.54721 1.27011 6.52678 2.36395 5.06577 4.04419L6.57501 5.35651L8.08425 6.66883C8.9105 5.7186 10.0531 5.1 11.3005 4.92761L11.0267 2.94644ZM6.57501 5.35651L5.06577 4.04419C3.60476 5.72443 2.80217 7.87721 2.80666 10.1038L4.80666 10.0998L6.80665 10.0957C6.80412 8.83653 7.258 7.61906 8.08425 6.66883L6.57501 5.35651ZM4.80666 10.0998H2.80666V13.3931H4.80666H6.80666V10.0998H4.80666ZM4.80666 13.3931L2.81214 13.2451C2.74893 14.0971 2.51578 14.9278 2.12643 15.6883L3.90666 16.5998L5.68689 17.5112C6.31959 16.2755 6.69846 14.9256 6.80118 13.5411L4.80666 13.3931ZM3.90666 16.5998L2.21958 15.5256C1.85588 16.0969 1.41746 16.6169 0.915972 17.072L2.25999 18.5531L3.60401 20.0342C4.36945 19.3396 5.03861 18.5458 5.59373 17.6739L3.90666 16.5998ZM2.25999 18.5531L0.939994 17.0506C0.655542 17.3005 0.427569 17.6081 0.27124 17.9529L2.0928 18.7787L3.91437 19.6045C3.8362 19.7769 3.72222 19.9307 3.57999 20.0556L2.25999 18.5531ZM2.0928 18.7787L0.27124 17.9529C0.11491 18.2978 0.0338062 18.6719 0.0333267 19.0506L2.03333 19.0531L4.03332 19.0556C4.03308 19.245 3.99253 19.432 3.91437 19.6045L2.0928 18.7787ZM2.03333 19.0531H0.0333252V19.9598H2.03333H4.03333V19.0531H2.03333ZM2.03333 19.9598H0.0333252C0.0333252 20.667 0.314278 21.3453 0.814374 21.8454L2.22859 20.4312L3.6428 19.017C3.89285 19.267 4.03333 19.6061 4.03333 19.9598H2.03333ZM2.22859 20.4312L0.814374 21.8454C1.31447 22.3455 1.99274 22.6264 2.69999 22.6264V20.6264V18.6264C3.05362 18.6264 3.39276 18.7669 3.6428 19.017L2.22859 20.4312ZM2.69999 20.6264V22.6264H21.2333V20.6264V18.6264H2.69999V20.6264ZM21.2333 20.6264V22.6264C21.9406 22.6264 22.6189 22.3455 23.1189 21.8454L21.7047 20.4312L20.2905 19.017C20.5406 18.7669 20.8797 18.6264 21.2333 18.6264V20.6264ZM21.7047 20.4312L23.1189 21.8454C23.619 21.3453 23.9 20.667 23.9 19.9598H21.9H19.9C19.9 19.6062 20.0405 19.267 20.2905 19.017L21.7047 20.4312ZM21.9 19.9598H23.9V19.0531H21.9H19.9V19.9598H21.9ZM21.9 19.0531L23.9 19.0506C23.8995 18.672 23.8184 18.2978 23.6621 17.9529L21.8405 18.7787L20.019 19.6045C19.9408 19.432 19.9002 19.2449 19.9 19.0556L21.9 19.0531ZM21.8405 18.7787L23.6621 17.9529C23.5057 17.608 23.2778 17.3005 22.9933 17.0506L21.6733 18.5531L20.3533 20.0556C20.2111 19.9307 20.0971 19.7769 20.019 19.6045L21.8405 18.7787ZM3.41999 19.2931L4.80988 20.7312C5.54485 20.0209 6.19209 19.2251 6.73778 18.3609L5.04666 17.2931L3.35554 16.2253C2.98038 16.8195 2.5354 17.3666 2.03011 17.855L3.41999 19.2931ZM5.04666 17.2931L6.81076 18.2354C7.59064 16.7754 8.04519 15.1638 8.14315 13.5115L6.14666 13.3931L4.15016 13.2747C4.08637 14.3507 3.79039 15.4001 3.28256 16.3508L5.04666 17.2931ZM6.14666 13.3931H8.14666V10.0998H6.14666H4.14666V13.3931H6.14666ZM6.14666 10.0998L8.14551 10.0321C8.12815 9.519 8.21422 9.00763 8.3986 8.52846L6.53202 7.81022L4.66544 7.09197C4.28833 8.07201 4.11229 9.11792 4.1478 10.1674L6.14666 10.0998ZM6.53202 7.81022L8.3986 8.52846C8.58298 8.04929 8.8619 7.61213 9.21875 7.243L7.78082 5.85291L6.34289 4.46281C5.61303 5.21779 5.04256 6.11193 4.66544 7.09197L6.53202 7.81022ZM7.78082 5.85291L9.21875 7.243C9.5756 6.87387 10.0031 6.58032 10.4757 6.37984L9.69478 4.53862L8.91381 2.6974C7.94709 3.10744 7.07276 3.70783 6.34289 4.46281L7.78082 5.85291ZM9.69478 4.53862L10.4757 6.37984C10.9484 6.17936 11.4566 6.07604 11.97 6.07604V4.07604V2.07604C10.9199 2.07604 9.88054 2.28736 8.91381 2.6974L9.69478 4.53862ZM11.97 4.07604V6.07604C12.4834 6.07604 12.9916 6.17936 13.4642 6.37984L14.2452 4.53862L15.0262 2.6974C14.0594 2.28736 13.0201 2.07604 11.97 2.07604V4.07604ZM14.2452 4.53862L13.4642 6.37984C13.9369 6.58032 14.3644 6.87387 14.7212 7.243L16.1592 5.85291L17.5971 4.46281C16.8672 3.70783 15.9929 3.10744 15.0262 2.6974L14.2452 4.53862ZM16.1592 5.85291L14.7212 7.243C15.0781 7.61213 15.357 8.04929 15.5414 8.52846L17.408 7.81022L19.2745 7.09197C18.8974 6.11193 18.327 5.21779 17.5971 4.46281L16.1592 5.85291ZM17.408 7.81022L15.5414 8.52846C15.7258 9.00763 15.8118 9.51901 15.7945 10.0321L17.7933 10.0998L19.7922 10.1674C19.8277 9.11792 19.6517 8.07201 19.2745 7.09197L17.408 7.81022ZM17.7933 10.0998H15.7933V13.3931H17.7933H19.7933V10.0998H17.7933ZM17.7933 13.3931L15.7968 13.5115C15.8948 15.1638 16.3493 16.7754 17.1292 18.2354L18.8933 17.2931L20.6574 16.3508C20.1496 15.4001 19.8536 14.3507 19.7898 13.2747L17.7933 13.3931ZM18.8933 17.2931L17.2022 18.3609C17.7479 19.2251 18.3951 20.0209 19.1301 20.7312L20.52 19.2931L21.9099 17.855C21.4046 17.3666 20.9596 16.8195 20.5844 16.2253L18.8933 17.2931ZM20.52 19.2931V17.2931H3.41999V19.2931V21.2931H20.52V19.2931Z" fill="#97BECA" mask="url(#path-1-inside-1_76_611)"/>
<mask id="path-3-inside-2_76_611" fill="white">
<path d="M12 22.8535C12.4199 22.8438 12.8229 22.6859 13.1377 22.4078C13.4525 22.1296 13.6587 21.7491 13.72 21.3335H10.2133C10.2763 21.7604 10.4922 22.1498 10.8209 22.4294C11.1495 22.709 11.5685 22.8597 12 22.8535Z"/>
</mask>
<path d="M12 22.8535C12.4199 22.8438 12.8229 22.6859 13.1377 22.4078C13.4525 22.1296 13.6587 21.7491 13.72 21.3335H10.2133C10.2763 21.7604 10.4922 22.1498 10.8209 22.4294C11.1495 22.709 11.5685 22.8597 12 22.8535Z" fill="#97BECA"/>
<path d="M12 22.8535L12.0289 24.8533L12.0375 24.8532L12.046 24.853L12 22.8535ZM13.72 21.3335L15.6986 21.6251L16.0363 19.3335H13.72V21.3335ZM10.2133 21.3335V19.3335H7.89658L8.23474 21.6254L10.2133 21.3335ZM12 22.8535L12.046 24.853C12.9378 24.8324 13.7937 24.4972 14.4621 23.9064L13.1377 22.4078L11.8133 20.9091C11.8522 20.8747 11.902 20.8552 11.9539 20.854L12 22.8535ZM13.1377 22.4078L14.4621 23.9064C15.1306 23.3157 15.5685 22.5076 15.6986 21.6251L13.72 21.3335L11.7414 21.0419C11.7489 20.9905 11.7744 20.9435 11.8133 20.9091L13.1377 22.4078ZM13.72 21.3335V19.3335H10.2133V21.3335V23.3335H13.72V21.3335ZM10.2133 21.3335L8.23474 21.6254C8.36849 22.5319 8.82697 23.359 9.5249 23.9528L10.8209 22.4294L12.1168 20.9061C12.1574 20.9407 12.1841 20.9888 12.1919 21.0416L10.2133 21.3335ZM10.8209 22.4294L9.5249 23.9528C10.2228 24.5465 11.1127 24.8665 12.0289 24.8533L12 22.8535L11.9711 20.8537C12.0244 20.8529 12.0762 20.8716 12.1168 20.9061L10.8209 22.4294Z" fill="#97BECA" mask="url(#path-3-inside-2_76_611)"/>
</g>
<defs>
<clipPath id="clip0_76_611">
<rect width="24" height="24" fill="white"/>
</clipPath>
</defs>
</svg>
