<svg width="18" height="14" viewBox="0 0 18 14" fill="none" xmlns="http://www.w3.org/2000/svg">
<path fill-rule="evenodd" clip-rule="evenodd" d="M8.67308 0C9.8079 0 10.8962 0.368749 11.6987 1.02513C12.5011 1.6815 12.9519 2.57174 12.9519 3.5V5.29375C13.556 5.39461 14.0989 5.66308 14.4887 6.05373C14.8786 6.44438 15.0915 6.93321 15.0913 7.4375V11.8125C15.0913 12.3927 14.8096 12.9491 14.3081 13.3593C13.8065 13.7695 13.1263 14 12.4171 14H4.92909C4.21982 14 3.53961 13.7695 3.03808 13.3593C2.53656 12.9491 2.25481 12.3927 2.25481 11.8125V7.4375C2.25468 6.93321 2.46756 6.44438 2.85743 6.05373C3.24729 5.66308 3.79018 5.39461 4.39423 5.29375V3.5C4.39423 2.57174 4.84503 1.6815 5.64747 1.02513C6.44991 0.368749 7.53825 0 8.67308 0ZM4.92909 6.125C4.50353 6.125 4.0954 6.26328 3.79448 6.50942C3.49357 6.75556 3.32452 7.0894 3.32452 7.4375V11.8125C3.32452 12.1606 3.49357 12.4944 3.79448 12.7406C4.0954 12.9867 4.50353 13.125 4.92909 13.125H12.4171C12.8426 13.125 13.2508 12.9867 13.5517 12.7406C13.8526 12.4944 14.0216 12.1606 14.0216 11.8125V7.4375C14.0216 7.0894 13.8526 6.75556 13.5517 6.50942C13.2508 6.26328 12.8426 6.125 12.4171 6.125H4.92909ZM8.67308 0.875C7.82196 0.875 7.0057 1.15156 6.40387 1.64384C5.80205 2.13613 5.46394 2.80381 5.46394 3.5V5.25H11.8822V3.5C11.8822 2.80381 11.5441 2.13613 10.9423 1.64384C10.3404 1.15156 9.52419 0.875 8.67308 0.875Z" fill="#9E9E9E"/>
</svg>
