<svg width="21" height="20" viewBox="0 0 21 20" fill="none" xmlns="http://www.w3.org/2000/svg">
<path d="M13.4615 17.9333H16.568C17.1173 17.9333 17.644 17.7276 18.0324 17.3614C18.4208 16.9952 18.639 16.4985 18.639 15.9806V13.0516C18.639 12.7927 18.7481 12.5444 18.9423 12.3613C19.1365 12.1782 19.3999 12.0753 19.6745 12.0753C19.9491 12.0753 20.2125 12.1782 20.4067 12.3613C20.6009 12.5444 20.71 12.7927 20.71 13.0516V15.9806C20.71 17.0164 20.2736 18.0097 19.4968 18.7421C18.7201 19.4745 17.6665 19.8859 16.568 19.8859H4.142C3.04347 19.8859 1.98994 19.4745 1.21316 18.7421C0.436388 18.0097 0 17.0164 0 15.9806V13.0516C0 12.7927 0.109097 12.5444 0.303291 12.3613C0.497485 12.1782 0.760868 12.0753 1.0355 12.0753C1.31013 12.0753 1.57352 12.1782 1.76771 12.3613C1.9619 12.5444 2.071 12.7927 2.071 13.0516V15.9806C2.071 16.4985 2.28919 16.9952 2.67758 17.3614C3.06597 17.7276 3.59274 17.9333 4.142 17.9333H7.2485C7.52313 17.9333 7.78651 18.0361 7.98071 18.2192C8.1749 18.4023 8.284 18.6507 8.284 18.9096C8.284 19.1686 8.1749 19.4169 7.98071 19.6C7.78651 19.7831 7.52313 19.8859 7.2485 19.8859H13.4615C13.1869 19.8859 12.9235 19.7831 12.7293 19.6C12.5351 19.4169 12.426 19.1686 12.426 18.9096C12.426 18.6507 12.5351 18.4023 12.7293 18.2192C12.9235 18.0361 13.1869 17.9333 13.4615 17.9333ZM2.071 7.19367C2.071 7.45261 1.9619 7.70095 1.76771 7.88404C1.57352 8.06714 1.31013 8.17 1.0355 8.17C0.760868 8.17 0.497485 8.06714 0.303291 7.88404C0.109097 7.70095 0 7.45261 0 7.19367V4.26469C0 3.22894 0.436388 2.2356 1.21316 1.50322C1.98994 0.770827 3.04347 0.359375 4.142 0.359375L7.2485 0.359375C7.52313 0.359375 7.78651 0.462238 7.98071 0.645335C8.1749 0.828432 8.284 1.07677 8.284 1.3357C8.284 1.59464 8.1749 1.84297 7.98071 2.02607C7.78651 2.20917 7.52313 2.31203 7.2485 2.31203H4.142C3.59274 2.31203 3.06597 2.51776 2.67758 2.88395C2.28919 3.25015 2.071 3.74681 2.071 4.26469V7.19367ZM18.639 7.19367V4.26469C18.639 3.74681 18.4208 3.25015 18.0324 2.88395C17.644 2.51776 17.1173 2.31203 16.568 2.31203H13.4615C13.1869 2.31203 12.9235 2.20917 12.7293 2.02607C12.5351 1.84297 12.426 1.59464 12.426 1.3357C12.426 1.07677 12.5351 0.828432 12.7293 0.645335C12.9235 0.462238 13.1869 0.359375 13.4615 0.359375L16.568 0.359375C17.6665 0.359375 18.7201 0.770827 19.4968 1.50322C20.2736 2.2356 20.71 3.22894 20.71 4.26469V7.19367C20.71 7.45261 20.6009 7.70095 20.4067 7.88404C20.2125 8.06714 19.9491 8.17 19.6745 8.17C19.3999 8.17 19.1365 8.06714 18.9423 7.88404C18.7481 7.70095 18.639 7.45261 18.639 7.19367Z" fill="#FFFBFB"/>
</svg>
