<svg width="25" height="24" viewBox="0 0 25 24" fill="none" xmlns="http://www.w3.org/2000/svg">
<path fill-rule="evenodd" clip-rule="evenodd" d="M15.1538 2.15224C14.7835 2 14.314 2 13.375 2C12.436 2 11.9665 2 11.5962 2.15224C11.1024 2.35523 10.7101 2.74458 10.5056 3.23463C10.4122 3.45834 10.3757 3.7185 10.3614 4.09799C10.3403 4.65568 10.0522 5.17189 9.56517 5.45093C9.07818 5.72996 8.48364 5.71954 7.98649 5.45876C7.64818 5.2813 7.40289 5.18262 7.16099 5.15102C6.63109 5.08178 6.09518 5.22429 5.67116 5.5472C5.35314 5.78938 5.11839 6.1929 4.6489 6.99993C4.17941 7.80697 3.94467 8.21048 3.89235 8.60491C3.82258 9.1308 3.96618 9.66266 4.29155 10.0835C4.44006 10.2756 4.64877 10.437 4.9727 10.639C5.44891 10.936 5.75532 11.4419 5.75529 12C5.75526 12.5581 5.44886 13.0639 4.9727 13.3608C4.64872 13.5629 4.43997 13.7244 4.29145 13.9165C3.96608 14.3373 3.82249 14.8691 3.89225 15.395C3.94457 15.7894 4.17932 16.193 4.6488 17C5.11829 17.807 5.35304 18.2106 5.67106 18.4527C6.09508 18.7756 6.63099 18.9181 7.16089 18.8489C7.40278 18.8173 7.64805 18.7186 7.98633 18.5412C8.48352 18.2804 9.0781 18.27 9.56512 18.549C10.0521 18.8281 10.3403 19.3443 10.3614 19.9021C10.3757 20.2815 10.4122 20.5417 10.5056 20.7654C10.7101 21.2554 11.1024 21.6448 11.5962 21.8478C11.9665 22 12.436 22 13.375 22C14.314 22 14.7835 22 15.1538 21.8478C15.6476 21.6448 16.0399 21.2554 16.2444 20.7654C16.3378 20.5417 16.3744 20.2815 16.3887 19.902C16.4097 19.3443 16.6978 18.8281 17.1848 18.549C17.6718 18.2699 18.2664 18.2804 18.7636 18.5412C19.1019 18.7186 19.3471 18.8172 19.589 18.8488C20.1189 18.9181 20.6548 18.7756 21.0788 18.4527C21.3969 18.2105 21.6316 17.807 22.1011 16.9999C22.5706 16.1929 22.8053 15.7894 22.8577 15.395C22.9274 14.8691 22.7838 14.3372 22.4585 13.9164C22.3099 13.7243 22.1012 13.5628 21.7772 13.3608C21.3011 13.0639 20.9947 12.558 20.9947 11.9999C20.9947 11.4418 21.3011 10.9361 21.7772 10.6392C22.1013 10.4371 22.31 10.2757 22.4586 10.0835C22.7839 9.66273 22.9275 9.13087 22.8578 8.60497C22.8054 8.21055 22.5707 7.80703 22.1012 7C21.6317 6.19297 21.397 5.78945 21.0789 5.54727C20.6549 5.22436 20.119 5.08185 19.5891 5.15109C19.3472 5.18269 19.1019 5.28136 18.7637 5.4588C18.2665 5.71959 17.6719 5.73002 17.1849 5.45096C16.6979 5.17191 16.4097 4.65566 16.3886 4.09794C16.3743 3.71848 16.3378 3.45833 16.2444 3.23463C16.0399 2.74458 15.6476 2.35523 15.1538 2.15224ZM13.375 15C15.0445 15 16.3978 13.6569 16.3978 12C16.3978 10.3431 15.0445 9 13.375 9C11.7055 9 10.3522 10.3431 10.3522 12C10.3522 13.6569 11.7055 15 13.375 15Z" fill="white"/>
</svg>
