<svg width="16" height="16" viewBox="0 0 16 16" fill="none" xmlns="http://www.w3.org/2000/svg">
<path d="M7.21665 14.6663C6.91665 14.6663 6.65843 14.5663 6.44199 14.3663C6.22554 14.1663 6.09488 13.9219 6.04999 13.633L5.89999 12.533C5.75554 12.4775 5.61954 12.4108 5.49199 12.333C5.36443 12.2552 5.23932 12.1719 5.11665 12.083L4.08332 12.5163C3.80554 12.6386 3.52776 12.6497 3.24999 12.5497C2.97221 12.4497 2.75554 12.2719 2.59999 12.0163L1.81665 10.6497C1.6611 10.3941 1.61665 10.1219 1.68332 9.83301C1.74999 9.54412 1.89999 9.30523 2.13332 9.11634L3.01665 8.44967C3.00554 8.3719 2.99999 8.29678 2.99999 8.22434V7.77434C2.99999 7.70234 3.00554 7.62745 3.01665 7.54967L2.13332 6.88301C1.89999 6.69412 1.74999 6.45523 1.68332 6.16634C1.61665 5.87745 1.6611 5.60523 1.81665 5.34967L2.59999 3.98301C2.75554 3.72745 2.97221 3.54967 3.24999 3.44967C3.52776 3.34967 3.80554 3.36079 4.08332 3.48301L5.11665 3.91634C5.23888 3.82745 5.36665 3.74412 5.49999 3.66634C5.63332 3.58856 5.76665 3.5219 5.89999 3.46634L6.04999 2.36634C6.09443 2.07745 6.2251 1.83301 6.44199 1.63301C6.65888 1.43301 6.9171 1.33301 7.21665 1.33301H8.78332C9.08332 1.33301 9.34176 1.43301 9.55865 1.63301C9.77554 1.83301 9.90599 2.07745 9.94999 2.36634L10.1 3.46634C10.2444 3.5219 10.3807 3.58856 10.5087 3.66634C10.6367 3.74412 10.7615 3.82745 10.8833 3.91634L11.9167 3.48301C12.1944 3.36079 12.4722 3.34967 12.75 3.44967C13.0278 3.54967 13.2444 3.72745 13.4 3.98301L14.1833 5.34967C14.3389 5.60523 14.3833 5.87745 14.3167 6.16634C14.25 6.45523 14.1 6.69412 13.8667 6.88301L12.9833 7.54967C12.9944 7.62745 13 7.70256 13 7.77501V8.22434C13 8.29678 12.9889 8.3719 12.9667 8.44967L13.85 9.11634C14.0833 9.30523 14.2333 9.54412 14.3 9.83301C14.3667 10.1219 14.3222 10.3941 14.1667 10.6497L13.3667 12.0163C13.2111 12.2719 12.9944 12.4497 12.7167 12.5497C12.4389 12.6497 12.1611 12.6386 11.8833 12.5163L10.8833 12.083C10.7611 12.1719 10.6333 12.2552 10.5 12.333C10.3667 12.4108 10.2333 12.4775 10.1 12.533L9.94999 13.633C9.90554 13.9219 9.7751 14.1663 9.55865 14.3663C9.34221 14.5663 9.08376 14.6663 8.78332 14.6663H7.21665ZM7.33332 13.333H8.64999L8.88332 11.5663C9.22776 11.4775 9.54732 11.347 9.84199 11.175C10.1367 11.003 10.406 10.7946 10.65 10.5497L12.3 11.233L12.95 10.0997L11.5167 9.01634C11.5722 8.86079 11.6111 8.69701 11.6333 8.52501C11.6555 8.35301 11.6667 8.1779 11.6667 7.99967C11.6667 7.82145 11.6555 7.64656 11.6333 7.47501C11.6111 7.30345 11.5722 7.13945 11.5167 6.98301L12.95 5.89967L12.3 4.76634L10.65 5.46634C10.4055 5.21079 10.1362 4.99701 9.84199 4.82501C9.54776 4.65301 9.22821 4.52234 8.88332 4.43301L8.66665 2.66634H7.34999L7.11665 4.43301C6.77221 4.5219 6.45288 4.65256 6.15865 4.82501C5.86443 4.99745 5.59488 5.20567 5.34999 5.44967L3.69999 4.76634L3.04999 5.89967L4.48332 6.96634C4.42776 7.13301 4.38888 7.29967 4.36665 7.46634C4.34443 7.63301 4.33332 7.81079 4.33332 7.99967C4.33332 8.17745 4.34443 8.34967 4.36665 8.51634C4.38888 8.68301 4.42776 8.84967 4.48332 9.01634L3.04999 10.0997L3.69999 11.233L5.34999 10.533C5.59443 10.7886 5.86399 11.0026 6.15865 11.175C6.45332 11.3475 6.77265 11.4779 7.11665 11.5663L7.33332 13.333ZM8.03332 10.333C8.67776 10.333 9.22776 10.1052 9.68332 9.64967C10.1389 9.19412 10.3667 8.64412 10.3667 7.99967C10.3667 7.35523 10.1389 6.80523 9.68332 6.34967C9.22776 5.89412 8.67776 5.66634 8.03332 5.66634C7.37776 5.66634 6.8251 5.89412 6.37532 6.34967C5.92554 6.80523 5.70043 7.35523 5.69999 7.99967C5.69954 8.64412 5.92465 9.19412 6.37532 9.64967C6.82599 10.1052 7.37865 10.333 8.03332 10.333Z" fill="#97BECA"/>
</svg>
