<svg width="51" height="51" viewBox="0 0 51 51" fill="none" xmlns="http://www.w3.org/2000/svg">
<path d="M25.5 6.37517C21.5549 6.37517 17.7714 7.94235 14.9818 10.732C12.1922 13.5216 10.625 17.3051 10.625 21.2502C10.625 27.3319 14.4117 33.199 18.5682 37.7444C20.6935 40.0599 23.0125 42.1898 25.5 44.1109C25.8712 43.8262 26.3068 43.4791 26.8069 43.0697C28.804 41.4297 30.6835 39.6517 32.4317 37.7487C36.5882 33.199 40.375 27.334 40.375 21.2502C40.375 17.3051 38.8078 13.5216 36.0182 10.732C33.2286 7.94235 29.4451 6.37517 25.5 6.37517ZM25.5 49.3299L24.2951 48.5012L24.2887 48.4969L24.276 48.4863L24.2335 48.4565L24.0741 48.3439L23.5004 47.9253C20.5931 45.7403 17.8922 43.2934 15.4318 40.6153C11.0883 35.8595 6.375 28.9767 6.375 21.248C6.375 16.1758 8.38995 11.3113 11.9766 7.72463C15.5632 4.138 20.4277 2.12305 25.5 2.12305C30.5723 2.12305 35.4368 4.138 39.0234 7.72463C42.6101 11.3113 44.625 16.1758 44.625 21.248C44.625 28.9767 39.9118 35.8617 35.5683 40.611C33.1084 43.2891 30.4083 45.736 27.5018 47.921C27.2596 48.1019 27.0152 48.2797 26.7686 48.4544L26.724 48.4842L26.7113 48.4948L26.707 48.4969L25.5 49.3299ZM25.5 17.0002C24.3728 17.0002 23.2918 17.4479 22.4948 18.245C21.6978 19.042 21.25 20.123 21.25 21.2502C21.25 22.3773 21.6978 23.4583 22.4948 24.2554C23.2918 25.0524 24.3728 25.5002 25.5 25.5002C26.6272 25.5002 27.7082 25.0524 28.5052 24.2554C29.3022 23.4583 29.75 22.3773 29.75 21.2502C29.75 20.123 29.3022 19.042 28.5052 18.245C27.7082 17.4479 26.6272 17.0002 25.5 17.0002ZM17 21.2502C17 18.9958 17.8955 16.8338 19.4896 15.2398C21.0837 13.6457 23.2457 12.7502 25.5 12.7502C27.7543 12.7502 29.9163 13.6457 31.5104 15.2398C33.1045 16.8338 34 18.9958 34 21.2502C34 23.5045 33.1045 25.6665 31.5104 27.2606C29.9163 28.8546 27.7543 29.7502 25.5 29.7502C23.2457 29.7502 21.0837 28.8546 19.4896 27.2606C17.8955 25.6665 17 23.5045 17 21.2502Z" fill="#F55549"/>
</svg>
