<svg width="16" height="16" viewBox="0 0 16 16" fill="none" xmlns="http://www.w3.org/2000/svg">
<path d="M8.00002 7.99967V11.9997M8.00002 7.99967C10.5774 7.99967 12.6667 5.92167 12.6667 3.35834C12.6667 3.29167 12.6654 3.22501 12.6627 3.15834C12.634 2.49167 12.62 2.15834 12.168 1.74567C11.716 1.33301 11.2167 1.33301 10.216 1.33301H5.78402C4.78402 1.33301 4.28335 1.33301 3.83202 1.74634C3.38069 2.15834 3.36602 2.49167 3.33735 3.15767C3.33469 3.22434 3.33335 3.29123 3.33335 3.35834C3.33335 5.92167 5.42269 7.99967 8.00002 7.99967ZM8.00002 11.9997C6.88402 11.9997 5.91335 12.6743 5.41202 13.6697C5.17202 14.145 5.51602 14.6663 5.97202 14.6663H10.0274C10.484 14.6663 10.8274 14.145 10.588 13.6697C10.0867 12.6743 9.11602 11.9997 8.00002 11.9997ZM3.33335 3.33301H2.65669C1.99869 3.33301 1.67002 3.33301 1.46669 3.57967C1.26335 3.82701 1.32335 4.10367 1.44269 4.65701C1.66935 5.71301 2.16335 6.64167 2.83269 7.33301M12.6667 3.33301H13.3434C14.0014 3.33301 14.33 3.33301 14.5334 3.57967C14.7367 3.82701 14.6767 4.10367 14.558 4.65701C14.33 5.71301 13.8367 6.64167 13.1667 7.33301" stroke="#C89800" stroke-width="1.5" stroke-linecap="round" stroke-linejoin="round"/>
</svg>
