<svg width="18" height="18" viewBox="0 0 18 18" fill="none" xmlns="http://www.w3.org/2000/svg">
<path d="M9.2436 9.00002C10.0935 9.00002 10.9086 8.6624 11.5096 8.06143C12.1105 7.46045 12.4482 6.64536 12.4482 5.79546C12.4482 4.94555 12.1105 4.13046 11.5096 3.52949C10.9086 2.92852 10.0935 2.59089 9.2436 2.59089C8.3937 2.59089 7.5786 2.92852 6.97763 3.52949C6.37666 4.13046 6.03904 4.94555 6.03904 5.79546C6.03904 6.64536 6.37666 7.46045 6.97763 8.06143C7.5786 8.6624 8.3937 9.00002 9.2436 9.00002ZM9.2436 10.0682C8.1104 10.0682 7.0236 9.61804 6.22231 8.81675C5.42101 8.01545 4.97085 6.92866 4.97085 5.79546C4.97085 4.66225 5.42101 3.57546 6.22231 2.77417C7.0236 1.97287 8.1104 1.52271 9.2436 1.52271C10.3768 1.52271 11.4636 1.97287 12.2649 2.77417C13.0662 3.57546 13.5164 4.66225 13.5164 5.79546C13.5164 6.92866 13.0662 8.01545 12.2649 8.81675C11.4636 9.61804 10.3768 10.0682 9.2436 10.0682ZM14.5845 15.4091V13.8069C14.5845 13.3819 14.4157 12.9744 14.1152 12.6739C13.8148 12.3734 13.4072 12.2046 12.9823 12.2046H5.50494C5.07999 12.2046 4.67244 12.3734 4.37196 12.6739C4.07147 12.9744 3.90266 13.3819 3.90266 13.8069V15.4091C3.90266 15.5508 3.84639 15.6866 3.74623 15.7868C3.64607 15.887 3.51022 15.9432 3.36857 15.9432C3.22692 15.9432 3.09107 15.887 2.99091 15.7868C2.89074 15.6866 2.83447 15.5508 2.83447 15.4091V13.8069C2.83447 13.0986 3.11582 12.4194 3.61664 11.9186C4.11745 11.4177 4.79669 11.1364 5.50494 11.1364H12.9823C13.6905 11.1364 14.3698 11.4177 14.8706 11.9186C15.3714 12.4194 15.6527 13.0986 15.6527 13.8069V15.4091C15.6527 15.5508 15.5965 15.6866 15.4963 15.7868C15.3961 15.887 15.2603 15.9432 15.1186 15.9432C14.977 15.9432 14.8411 15.887 14.741 15.7868C14.6408 15.6866 14.5845 15.5508 14.5845 15.4091Z" fill="#9E9E9E"/>
</svg>
